<?xml version="1.0" encoding="UTF-8" standalone="no"?>
<!-- Created with Inkscape (http://www.inkscape.org/) -->
<svg xmlns:ns="http://creativecommons.org/ns#" xmlns:dc="http://purl.org/dc/elements/1.1/" xmlns:cc="http://web.resource.org/cc/" xmlns:rdf="http://www.w3.org/1999/02/22-rdf-syntax-ns#" xmlns:svg="http://www.w3.org/2000/svg" xmlns="http://www.w3.org/2000/svg" xmlns:sodipodi="http://sodipodi.sourceforge.net/DTD/sodipodi-0.dtd" xmlns:inkscape="http://www.inkscape.org/namespaces/inkscape" width="4860" height="1620" id="svg2" sodipodi:version="0.32" inkscape:version="0.45" sodipodi:docbase="/home/cosine/openproduce" sodipodi:docname="openproduce05.svg" inkscape:output_extension="org.inkscape.output.svg.inkscape" inkscape:export-filename="/nfs/harper/hc1/maloney/openproduce/openproduce06.png" inkscape:export-xdpi="153.04596" inkscape:export-ydpi="153.04596" version="1.0" sodipodi:modified="true">
  <defs id="defs4">
    <inkscape:perspective sodipodi:type="inkscape:persp3d" inkscape:vp_x="0 : 526.18109 : 1" inkscape:vp_y="0 : 1000 : 0" inkscape:vp_z="744.09448 : 526.18109 : 1" inkscape:persp3d-origin="372.04724 : 350.78739 : 1" id="perspective5596"/>
  </defs>
  <sodipodi:namedview id="base" pagecolor="#ffffff" bordercolor="#666666" borderopacity="1.0" gridtolerance="10000" guidetolerance="10" objecttolerance="10" inkscape:pageopacity="0.0" inkscape:pageshadow="2" inkscape:zoom="0.6798495" inkscape:cx="-68.956327" inkscape:cy="769.71091" inkscape:document-units="px" inkscape:current-layer="layer1" inkscape:window-width="1024" inkscape:window-height="768" inkscape:window-x="-2" inkscape:window-y="-14" showgrid="true" width="54in" height="18in" units="in" gridspacingx="2in" gridspacingy="2in" gridanglex="0.33333333in" gridanglez="0.33333333in" grid_units="in" gridempspacing="6"/>
  <metadata id="metadata7">
    <rdf:RDF>
      <ns:Work rdf:about="">
        <dc:format>image/svg+xml</dc:format>
        <dc:type rdf:resource="http://purl.org/dc/dcmitype/StillImage"/>
      </ns:Work>
      <cc:Work rdf:about="">
        <dc:format>image/svg+xml</dc:format>
        <dc:type rdf:resource="http://purl.org/dc/dcmitype/StillImage"/>
      </cc:Work>
    </rdf:RDF>
  </metadata>
  <g inkscape:label="Layer 1" inkscape:groupmode="layer" id="layer1">
    <rect style="fill: rgb(51, 102, 0); fill-opacity: 1; stroke: rgb(172, 230, 0); stroke-width: 48.64; stroke-linecap: round; stroke-linejoin: round; stroke-miterlimit: 4; stroke-dasharray: none; stroke-opacity: 1;" id="rect2160" width="4661.396" height="770.45398" x="89.61792" y="499.58408" ry="176.07898"/>
    <g id="g39510" transform="matrix(-0.874655, 0, 0, 0.806147, 1142.89, 384.204)">
      <path transform="translate(123.896, 74.6194)" d="M 694.28572 620.93359 A 231.42857 205.71428 0 1 1  231.42857,620.93359 A 231.42857 205.71428 0 1 1  694.28572 620.93359 z" sodipodi:ry="205.71428" sodipodi:rx="231.42857" sodipodi:cy="620.93359" sodipodi:cx="462.85715" id="path35620" style="opacity: 1; fill: rgb(230, 57, 0); fill-opacity: 1; stroke: rgb(230, 0, 57); stroke-width: 16.897; stroke-linecap: round; stroke-linejoin: round; stroke-miterlimit: 4; stroke-dasharray: none; stroke-opacity: 1;" sodipodi:type="arc"/>
      <path sodipodi:nodetypes="czcccczsczczccccccccccccccc" id="path37562" d="M 741.55914,572.31946 C 718.71559,537.12385 711.62221,542.97066 679.47936,531.54209 C 647.3365,520.11352 605.91665,539.73715 605.91665,539.73715 C 605.91665,539.73715 667.22011,493.98698 723.89634,499.62331 C 734.10555,480.00584 637.66211,483.49061 637.66211,483.49061 L 592.46777,549.83868 C 592.46777,549.83868 560.25702,502.35637 535.25702,503.78494 C 510.25702,505.21351 443.1805,556.90306 461.75491,548.24038 C 511.17532,525.19183 586.75348,555.55297 586.75348,555.55297 C 586.75348,555.55297 527.46776,571.26725 501.03919,598.41011 C 474.61062,625.55297 481.03919,664.1244 481.03919,664.1244 C 481.03919,664.1244 494.95725,637.5943 524.24297,608.30858 C 553.52868,579.02287 598.18205,546.98154 598.18205,546.98154 L 646.11969,575.1766 L 735.32491,646.98154 L 663.23281,558.38038 L 585.63042,544.1244 L 546.23354,455.72629 L 494.17117,399.7669 L 421.84629,374.63359 L 426.6177,358.95324 L 492.04644,384.53988 L 550.93766,440.2571 L 570.44746,400.46015 L 583.89634,409.83868 L 563.89634,449.83868 L 595.32491,538.41011" style="fill: rgb(100, 102, 0); fill-opacity: 1; fill-rule: evenodd; stroke: rgb(174, 96, 15); stroke-width: 1.87397; stroke-linecap: butt; stroke-linejoin: miter; stroke-miterlimit: 4; stroke-dasharray: none; stroke-opacity: 0.941176;"/>
    </g>
    <g id="g7087" transform="matrix(-0.779706, 0.457905, 0.463093, 0.785466, 1137.3, 149.456)">
      <g id="g7162" transform="translate(488.237, -109.483)">
        <path sodipodi:type="arc" style="opacity: 1; fill: rgb(230, 172, 0); fill-opacity: 1; stroke: rgb(230, 94, 0); stroke-width: 16.897; stroke-linecap: round; stroke-linejoin: round; stroke-miterlimit: 4; stroke-dasharray: none; stroke-opacity: 1;" id="path7013" sodipodi:cx="462.85715" sodipodi:cy="620.93359" sodipodi:rx="231.42857" sodipodi:ry="205.71428" d="M 694.28572 620.93359 A 231.42857 205.71428 0 1 1  231.42857,620.93359 A 231.42857 205.71428 0 1 1  694.28572 620.93359 z" transform="translate(291.979, -113.419)"/>
        <path sodipodi:type="arc" style="fill: rgb(114, 68, 0); fill-opacity: 0.827451; stroke: rgb(114, 68, 0); stroke-width: 4.46184; stroke-linecap: round; stroke-linejoin: round; stroke-miterlimit: 4; stroke-dasharray: none; stroke-opacity: 0.826316;" id="path6848" sodipodi:cx="457.76788" sodipodi:cy="479.78671" sodipodi:rx="24.862791" sodipodi:ry="19.743982" d="M 482.63067 479.78671 A 24.862791 19.743982 0 1 1  432.90509,479.78671 A 24.862791 19.743982 0 1 1  482.63067 479.78671 z" transform="translate(291.979, -113.419)"/>
        <path sodipodi:type="arc" style="fill: rgb(230, 211, 0); fill-opacity: 0.494737; stroke: none; stroke-width: 5; stroke-linecap: round; stroke-linejoin: round; stroke-miterlimit: 4; stroke-dasharray: none; stroke-opacity: 0.826316;" id="path6860" sodipodi:cx="422.66745" sodipodi:cy="531.70605" sodipodi:rx="8.7751026" sodipodi:ry="8.7751026" d="M 431.44255 531.70605 A 8.7751026 8.7751026 0 1 1  413.89235,531.70605 A 8.7751026 8.7751026 0 1 1  431.44255 531.70605 z" transform="translate(369.492, -183.62)"/>
        <path sodipodi:type="arc" style="fill: rgb(230, 211, 0); fill-opacity: 0.494737; stroke: none; stroke-width: 5; stroke-linecap: round; stroke-linejoin: round; stroke-miterlimit: 4; stroke-dasharray: none; stroke-opacity: 0.826316;" id="path6863" sodipodi:cx="422.66745" sodipodi:cy="531.70605" sodipodi:rx="8.7751026" sodipodi:ry="8.7751026" d="M 431.44255 531.70605 A 8.7751026 8.7751026 0 1 1  413.89235,531.70605 A 8.7751026 8.7751026 0 1 1  431.44255 531.70605 z" transform="translate(369.492, -155.832)"/>
        <path sodipodi:type="arc" style="fill: rgb(230, 211, 0); fill-opacity: 0.494737; stroke: none; stroke-width: 5; stroke-linecap: round; stroke-linejoin: round; stroke-miterlimit: 4; stroke-dasharray: none; stroke-opacity: 0.826316;" id="path6865" sodipodi:cx="422.66745" sodipodi:cy="531.70605" sodipodi:rx="8.7751026" sodipodi:ry="8.7751026" d="M 431.44255 531.70605 A 8.7751026 8.7751026 0 1 1  413.89235,531.70605 A 8.7751026 8.7751026 0 1 1  431.44255 531.70605 z" transform="translate(403.13, -163.145)"/>
        <path sodipodi:type="arc" style="fill: rgb(230, 211, 0); fill-opacity: 0.494737; stroke: none; stroke-width: 5; stroke-linecap: round; stroke-linejoin: round; stroke-miterlimit: 4; stroke-dasharray: none; stroke-opacity: 0.826316;" id="path6867" sodipodi:cx="422.66745" sodipodi:cy="531.70605" sodipodi:rx="8.7751026" sodipodi:ry="8.7751026" d="M 431.44255 531.70605 A 8.7751026 8.7751026 0 1 1  413.89235,531.70605 A 8.7751026 8.7751026 0 1 1  431.44255 531.70605 z" transform="translate(360.717, -201.17)"/>
        <path sodipodi:type="arc" style="fill: rgb(230, 211, 0); fill-opacity: 0.494737; stroke: none; stroke-width: 5; stroke-linecap: round; stroke-linejoin: round; stroke-miterlimit: 4; stroke-dasharray: none; stroke-opacity: 0.826316;" id="path6869" sodipodi:cx="422.66745" sodipodi:cy="531.70605" sodipodi:rx="8.7751026" sodipodi:ry="8.7751026" d="M 431.44255 531.70605 A 8.7751026 8.7751026 0 1 1  413.89235,531.70605 A 8.7751026 8.7751026 0 1 1  431.44255 531.70605 z" transform="translate(394.355, -192.395)"/>
        <path sodipodi:type="arc" style="fill: rgb(230, 211, 0); fill-opacity: 0.494737; stroke: none; stroke-width: 5; stroke-linecap: round; stroke-linejoin: round; stroke-miterlimit: 4; stroke-dasharray: none; stroke-opacity: 0.826316;" id="path6871" sodipodi:cx="422.66745" sodipodi:cy="531.70605" sodipodi:rx="8.7751026" sodipodi:ry="8.7751026" d="M 431.44255 531.70605 A 8.7751026 8.7751026 0 1 1  413.89235,531.70605 A 8.7751026 8.7751026 0 1 1  431.44255 531.70605 z" transform="translate(382.655, -168.995)"/>
        <path sodipodi:type="arc" style="fill: rgb(230, 211, 0); fill-opacity: 0.494737; stroke: none; stroke-width: 5; stroke-linecap: round; stroke-linejoin: round; stroke-miterlimit: 4; stroke-dasharray: none; stroke-opacity: 0.826316;" id="path6873" sodipodi:cx="422.66745" sodipodi:cy="531.70605" sodipodi:rx="8.7751026" sodipodi:ry="8.7751026" d="M 431.44255 531.70605 A 8.7751026 8.7751026 0 1 1  413.89235,531.70605 A 8.7751026 8.7751026 0 1 1  431.44255 531.70605 z" transform="translate(306.604, -120.732)"/>
        <path sodipodi:type="arc" style="fill: rgb(230, 211, 0); fill-opacity: 0.494737; stroke: none; stroke-width: 5; stroke-linecap: round; stroke-linejoin: round; stroke-miterlimit: 4; stroke-dasharray: none; stroke-opacity: 0.826316;" id="path6875" sodipodi:cx="422.66745" sodipodi:cy="531.70605" sodipodi:rx="8.7751026" sodipodi:ry="8.7751026" d="M 431.44255 531.70605 A 8.7751026 8.7751026 0 1 1  413.89235,531.70605 A 8.7751026 8.7751026 0 1 1  431.44255 531.70605 z" transform="translate(286.129, -147.057)"/>
        <path sodipodi:type="arc" style="fill: rgb(230, 211, 0); fill-opacity: 0.494737; stroke: none; stroke-width: 5; stroke-linecap: round; stroke-linejoin: round; stroke-miterlimit: 4; stroke-dasharray: none; stroke-opacity: 0.826316;" id="path6877" sodipodi:cx="422.66745" sodipodi:cy="531.70605" sodipodi:rx="8.7751026" sodipodi:ry="8.7751026" d="M 431.44255 531.70605 A 8.7751026 8.7751026 0 1 1  413.89235,531.70605 A 8.7751026 8.7751026 0 1 1  431.44255 531.70605 z" transform="translate(347.554, -123.657)"/>
        <path sodipodi:type="arc" style="fill: rgb(230, 211, 0); fill-opacity: 0.494737; stroke: none; stroke-width: 5; stroke-linecap: round; stroke-linejoin: round; stroke-miterlimit: 4; stroke-dasharray: none; stroke-opacity: 0.826316;" id="path6879" sodipodi:cx="422.66745" sodipodi:cy="531.70605" sodipodi:rx="8.7751026" sodipodi:ry="8.7751026" d="M 431.44255 531.70605 A 8.7751026 8.7751026 0 1 1  413.89235,531.70605 A 8.7751026 8.7751026 0 1 1  431.44255 531.70605 z" transform="translate(319.766, -208.483)"/>
        <path sodipodi:type="arc" style="fill: rgb(230, 211, 0); fill-opacity: 0.494737; stroke: none; stroke-width: 5; stroke-linecap: round; stroke-linejoin: round; stroke-miterlimit: 4; stroke-dasharray: none; stroke-opacity: 0.826316;" id="path6881" sodipodi:cx="422.66745" sodipodi:cy="531.70605" sodipodi:rx="8.7751026" sodipodi:ry="8.7751026" d="M 431.44255 531.70605 A 8.7751026 8.7751026 0 1 1  413.89235,531.70605 A 8.7751026 8.7751026 0 1 1  431.44255 531.70605 z" transform="translate(347.554, -190.932)"/>
        <path sodipodi:type="arc" style="fill: rgb(230, 211, 0); fill-opacity: 0.494737; stroke: none; stroke-width: 5; stroke-linecap: round; stroke-linejoin: round; stroke-miterlimit: 4; stroke-dasharray: none; stroke-opacity: 0.826316;" id="path6883" sodipodi:cx="422.66745" sodipodi:cy="531.70605" sodipodi:rx="8.7751026" sodipodi:ry="8.7751026" d="M 431.44255 531.70605 A 8.7751026 8.7751026 0 1 1  413.89235,531.70605 A 8.7751026 8.7751026 0 1 1  431.44255 531.70605 z" transform="translate(438.23, -157.295)"/>
        <path sodipodi:type="arc" style="fill: rgb(230, 211, 0); fill-opacity: 0.494737; stroke: none; stroke-width: 5; stroke-linecap: round; stroke-linejoin: round; stroke-miterlimit: 4; stroke-dasharray: none; stroke-opacity: 0.826316;" id="path6885" sodipodi:cx="422.66745" sodipodi:cy="531.70605" sodipodi:rx="8.7751026" sodipodi:ry="8.7751026" d="M 431.44255 531.70605 A 8.7751026 8.7751026 0 1 1  413.89235,531.70605 A 8.7751026 8.7751026 0 1 1  431.44255 531.70605 z" transform="translate(394.355, -114.882)"/>
        <path sodipodi:type="arc" style="fill: rgb(230, 211, 0); fill-opacity: 0.494737; stroke: none; stroke-width: 5; stroke-linecap: round; stroke-linejoin: round; stroke-miterlimit: 4; stroke-dasharray: none; stroke-opacity: 0.826316;" id="path6887" sodipodi:cx="422.66745" sodipodi:cy="531.70605" sodipodi:rx="8.7751026" sodipodi:ry="8.7751026" d="M 431.44255 531.70605 A 8.7751026 8.7751026 0 1 1  413.89235,531.70605 A 8.7751026 8.7751026 0 1 1  431.44255 531.70605 z" transform="translate(376.805, -135.357)"/>
        <path sodipodi:type="arc" style="fill: rgb(230, 211, 0); fill-opacity: 0.494737; stroke: none; stroke-width: 5; stroke-linecap: round; stroke-linejoin: round; stroke-miterlimit: 4; stroke-dasharray: none; stroke-opacity: 0.826316;" id="path6889" sodipodi:cx="422.66745" sodipodi:cy="531.70605" sodipodi:rx="8.7751026" sodipodi:ry="8.7751026" d="M 431.44255 531.70605 A 8.7751026 8.7751026 0 1 1  413.89235,531.70605 A 8.7751026 8.7751026 0 1 1  431.44255 531.70605 z" transform="translate(373.88, -104.644)"/>
        <path sodipodi:type="arc" style="fill: rgb(230, 211, 0); fill-opacity: 0.494737; stroke: none; stroke-width: 5; stroke-linecap: round; stroke-linejoin: round; stroke-miterlimit: 4; stroke-dasharray: none; stroke-opacity: 0.826316;" id="path6891" sodipodi:cx="422.66745" sodipodi:cy="531.70605" sodipodi:rx="8.7751026" sodipodi:ry="8.7751026" d="M 431.44255 531.70605 A 8.7751026 8.7751026 0 1 1  413.89235,531.70605 A 8.7751026 8.7751026 0 1 1  431.44255 531.70605 z" transform="translate(419.218, -104.644)"/>
        <path sodipodi:type="arc" style="fill: rgb(230, 211, 0); fill-opacity: 0.494737; stroke: none; stroke-width: 5; stroke-linecap: round; stroke-linejoin: round; stroke-miterlimit: 4; stroke-dasharray: none; stroke-opacity: 0.826316;" id="path6893" sodipodi:cx="422.66745" sodipodi:cy="531.70605" sodipodi:rx="8.7751026" sodipodi:ry="8.7751026" d="M 431.44255 531.70605 A 8.7751026 8.7751026 0 1 1  413.89235,531.70605 A 8.7751026 8.7751026 0 1 1  431.44255 531.70605 z" transform="translate(423.605, -125.119)"/>
        <path sodipodi:type="arc" style="fill: rgb(230, 211, 0); fill-opacity: 0.494737; stroke: none; stroke-width: 5; stroke-linecap: round; stroke-linejoin: round; stroke-miterlimit: 4; stroke-dasharray: none; stroke-opacity: 0.826316;" id="path6895" sodipodi:cx="422.66745" sodipodi:cy="531.70605" sodipodi:rx="8.7751026" sodipodi:ry="8.7751026" d="M 431.44255 531.70605 A 8.7751026 8.7751026 0 1 1  413.89235,531.70605 A 8.7751026 8.7751026 0 1 1  431.44255 531.70605 z" transform="translate(401.667, -123.657)"/>
        <path sodipodi:type="arc" style="fill: rgb(230, 211, 0); fill-opacity: 0.494737; stroke: none; stroke-width: 5; stroke-linecap: round; stroke-linejoin: round; stroke-miterlimit: 4; stroke-dasharray: none; stroke-opacity: 0.826316;" id="path6897" sodipodi:cx="422.66745" sodipodi:cy="531.70605" sodipodi:rx="8.7751026" sodipodi:ry="8.7751026" d="M 431.44255 531.70605 A 8.7751026 8.7751026 0 1 1  413.89235,531.70605 A 8.7751026 8.7751026 0 1 1  431.44255 531.70605 z" transform="translate(397.28, -101.719)"/>
        <path sodipodi:type="arc" style="fill: rgb(230, 211, 0); fill-opacity: 0.494737; stroke: none; stroke-width: 5; stroke-linecap: round; stroke-linejoin: round; stroke-miterlimit: 4; stroke-dasharray: none; stroke-opacity: 0.826316;" id="path6899" sodipodi:cx="422.66745" sodipodi:cy="531.70605" sodipodi:rx="8.7751026" sodipodi:ry="8.7751026" d="M 431.44255 531.70605 A 8.7751026 8.7751026 0 1 1  413.89235,531.70605 A 8.7751026 8.7751026 0 1 1  431.44255 531.70605 z" transform="translate(408.98, -91.4813)"/>
        <path sodipodi:type="arc" style="fill: rgb(230, 211, 0); fill-opacity: 0.494737; stroke: none; stroke-width: 5; stroke-linecap: round; stroke-linejoin: round; stroke-miterlimit: 4; stroke-dasharray: none; stroke-opacity: 0.826316;" id="path6901" sodipodi:cx="422.66745" sodipodi:cy="531.70605" sodipodi:rx="8.7751026" sodipodi:ry="8.7751026" d="M 431.44255 531.70605 A 8.7751026 8.7751026 0 1 1  413.89235,531.70605 A 8.7751026 8.7751026 0 1 1  431.44255 531.70605 z" transform="translate(439.693, -88.5563)"/>
        <path sodipodi:type="arc" style="fill: rgb(230, 211, 0); fill-opacity: 0.494737; stroke: none; stroke-width: 5; stroke-linecap: round; stroke-linejoin: round; stroke-miterlimit: 4; stroke-dasharray: none; stroke-opacity: 0.826316;" id="path6903" sodipodi:cx="422.66745" sodipodi:cy="531.70605" sodipodi:rx="8.7751026" sodipodi:ry="8.7751026" d="M 431.44255 531.70605 A 8.7751026 8.7751026 0 1 1  413.89235,531.70605 A 8.7751026 8.7751026 0 1 1  431.44255 531.70605 z" transform="translate(448.468, -107.569)"/>
        <path sodipodi:type="arc" style="fill: rgb(230, 211, 0); fill-opacity: 0.494737; stroke: none; stroke-width: 5; stroke-linecap: round; stroke-linejoin: round; stroke-miterlimit: 4; stroke-dasharray: none; stroke-opacity: 0.826316;" id="path6905" sodipodi:cx="422.66745" sodipodi:cy="531.70605" sodipodi:rx="8.7751026" sodipodi:ry="8.7751026" d="M 431.44255 531.70605 A 8.7751026 8.7751026 0 1 1  413.89235,531.70605 A 8.7751026 8.7751026 0 1 1  431.44255 531.70605 z" transform="translate(385.58, -72.4686)"/>
        <path sodipodi:type="arc" style="fill: rgb(230, 211, 0); fill-opacity: 0.494737; stroke: none; stroke-width: 5; stroke-linecap: round; stroke-linejoin: round; stroke-miterlimit: 4; stroke-dasharray: none; stroke-opacity: 0.826316;" id="path6907" sodipodi:cx="422.66745" sodipodi:cy="531.70605" sodipodi:rx="8.7751026" sodipodi:ry="8.7751026" d="M 431.44255 531.70605 A 8.7751026 8.7751026 0 1 1  413.89235,531.70605 A 8.7751026 8.7751026 0 1 1  431.44255 531.70605 z" transform="translate(406.055, -56.3809)"/>
        <path sodipodi:type="arc" style="fill: rgb(230, 211, 0); fill-opacity: 0.494737; stroke: none; stroke-width: 5; stroke-linecap: round; stroke-linejoin: round; stroke-miterlimit: 4; stroke-dasharray: none; stroke-opacity: 0.826316;" id="path6909" sodipodi:cx="422.66745" sodipodi:cy="531.70605" sodipodi:rx="8.7751026" sodipodi:ry="8.7751026" d="M 431.44255 531.70605 A 8.7751026 8.7751026 0 1 1  413.89235,531.70605 A 8.7751026 8.7751026 0 1 1  431.44255 531.70605 z" transform="translate(430.918, -62.2309)"/>
        <path sodipodi:type="arc" style="fill: rgb(230, 211, 0); fill-opacity: 0.494737; stroke: none; stroke-width: 5; stroke-linecap: round; stroke-linejoin: round; stroke-miterlimit: 4; stroke-dasharray: none; stroke-opacity: 0.826316;" id="path6911" sodipodi:cx="422.66745" sodipodi:cy="531.70605" sodipodi:rx="8.7751026" sodipodi:ry="8.7751026" d="M 431.44255 531.70605 A 8.7751026 8.7751026 0 1 1  413.89235,531.70605 A 8.7751026 8.7751026 0 1 1  431.44255 531.70605 z" transform="translate(351.942, -78.3186)"/>
        <path sodipodi:type="arc" style="fill: rgb(230, 211, 0); fill-opacity: 0.494737; stroke: none; stroke-width: 5; stroke-linecap: round; stroke-linejoin: round; stroke-miterlimit: 4; stroke-dasharray: none; stroke-opacity: 0.826316;" id="path6913" sodipodi:cx="422.66745" sodipodi:cy="531.70605" sodipodi:rx="8.7751026" sodipodi:ry="8.7751026" d="M 431.44255 531.70605 A 8.7751026 8.7751026 0 1 1  413.89235,531.70605 A 8.7751026 8.7751026 0 1 1  431.44255 531.70605 z" transform="translate(490.881, -85.6312)"/>
        <path sodipodi:type="arc" style="fill: rgb(230, 103, 0); fill-opacity: 0.531579; stroke: none; stroke-width: 5; stroke-linecap: round; stroke-linejoin: round; stroke-miterlimit: 4; stroke-dasharray: none; stroke-opacity: 0.826316;" id="path6915" sodipodi:cx="422.66745" sodipodi:cy="531.70605" sodipodi:rx="8.7751026" sodipodi:ry="8.7751026" d="M 431.44255 531.70605 A 8.7751026 8.7751026 0 1 1  413.89235,531.70605 A 8.7751026 8.7751026 0 1 1  431.44255 531.70605 z" transform="translate(214.465, 84.0208)"/>
        <path sodipodi:type="arc" style="fill: rgb(230, 103, 0); fill-opacity: 0.531579; stroke: none; stroke-width: 5; stroke-linecap: round; stroke-linejoin: round; stroke-miterlimit: 4; stroke-dasharray: none; stroke-opacity: 0.826316;" id="path6917" sodipodi:cx="422.66745" sodipodi:cy="531.70605" sodipodi:rx="8.7751026" sodipodi:ry="8.7751026" d="M 431.44255 531.70605 A 8.7751026 8.7751026 0 1 1  413.89235,531.70605 A 8.7751026 8.7751026 0 1 1  431.44255 531.70605 z" transform="translate(226.165, 113.271)"/>
        <path sodipodi:type="arc" style="fill: rgb(230, 103, 0); fill-opacity: 0.531579; stroke: none; stroke-width: 5; stroke-linecap: round; stroke-linejoin: round; stroke-miterlimit: 4; stroke-dasharray: none; stroke-opacity: 0.826316;" id="path6919" sodipodi:cx="422.66745" sodipodi:cy="531.70605" sodipodi:rx="8.7751026" sodipodi:ry="8.7751026" d="M 431.44255 531.70605 A 8.7751026 8.7751026 0 1 1  413.89235,531.70605 A 8.7751026 8.7751026 0 1 1  431.44255 531.70605 z" transform="translate(289.054, 119.121)"/>
        <path sodipodi:type="arc" style="fill: rgb(230, 103, 0); fill-opacity: 0.531579; stroke: none; stroke-width: 5; stroke-linecap: round; stroke-linejoin: round; stroke-miterlimit: 4; stroke-dasharray: none; stroke-opacity: 0.826316;" id="path6921" sodipodi:cx="422.66745" sodipodi:cy="531.70605" sodipodi:rx="8.7751026" sodipodi:ry="8.7751026" d="M 431.44255 531.70605 A 8.7751026 8.7751026 0 1 1  413.89235,531.70605 A 8.7751026 8.7751026 0 1 1  431.44255 531.70605 z" transform="translate(239.328, 82.5583)"/>
        <path sodipodi:type="arc" style="fill: rgb(230, 103, 0); fill-opacity: 0.531579; stroke: none; stroke-width: 5; stroke-linecap: round; stroke-linejoin: round; stroke-miterlimit: 4; stroke-dasharray: none; stroke-opacity: 0.826316;" id="path6923" sodipodi:cx="422.66745" sodipodi:cy="531.70605" sodipodi:rx="8.7751026" sodipodi:ry="8.7751026" d="M 431.44255 531.70605 A 8.7751026 8.7751026 0 1 1  413.89235,531.70605 A 8.7751026 8.7751026 0 1 1  431.44255 531.70605 z" transform="translate(251.028, 107.421)"/>
        <path sodipodi:type="arc" style="fill: rgb(230, 103, 0); fill-opacity: 0.531579; stroke: none; stroke-width: 5; stroke-linecap: round; stroke-linejoin: round; stroke-miterlimit: 4; stroke-dasharray: none; stroke-opacity: 0.826316;" id="path6925" sodipodi:cx="422.66745" sodipodi:cy="531.70605" sodipodi:rx="8.7751026" sodipodi:ry="8.7751026" d="M 431.44255 531.70605 A 8.7751026 8.7751026 0 1 1  413.89235,531.70605 A 8.7751026 8.7751026 0 1 1  431.44255 531.70605 z" transform="translate(261.266, 123.509)"/>
        <path sodipodi:type="arc" style="fill: rgb(230, 103, 0); fill-opacity: 0.531579; stroke: none; stroke-width: 5; stroke-linecap: round; stroke-linejoin: round; stroke-miterlimit: 4; stroke-dasharray: none; stroke-opacity: 0.826316;" id="path6927" sodipodi:cx="422.66745" sodipodi:cy="531.70605" sodipodi:rx="8.7751026" sodipodi:ry="8.7751026" d="M 431.44255 531.70605 A 8.7751026 8.7751026 0 1 1  413.89235,531.70605 A 8.7751026 8.7751026 0 1 1  431.44255 531.70605 z" transform="translate(303.679, 133.746)"/>
        <path sodipodi:type="arc" style="fill: rgb(230, 103, 0); fill-opacity: 0.531579; stroke: none; stroke-width: 5; stroke-linecap: round; stroke-linejoin: round; stroke-miterlimit: 4; stroke-dasharray: none; stroke-opacity: 0.826316;" id="path6929" sodipodi:cx="422.66745" sodipodi:cy="531.70605" sodipodi:rx="8.7751026" sodipodi:ry="8.7751026" d="M 431.44255 531.70605 A 8.7751026 8.7751026 0 1 1  413.89235,531.70605 A 8.7751026 8.7751026 0 1 1  431.44255 531.70605 z" transform="translate(346.092, 124.971)"/>
        <path sodipodi:type="arc" style="fill: rgb(230, 103, 0); fill-opacity: 0.531579; stroke: none; stroke-width: 5; stroke-linecap: round; stroke-linejoin: round; stroke-miterlimit: 4; stroke-dasharray: none; stroke-opacity: 0.826316;" id="path6931" sodipodi:cx="422.66745" sodipodi:cy="531.70605" sodipodi:rx="8.7751026" sodipodi:ry="8.7751026" d="M 431.44255 531.70605 A 8.7751026 8.7751026 0 1 1  413.89235,531.70605 A 8.7751026 8.7751026 0 1 1  431.44255 531.70605 z" transform="translate(375.342, 129.359)"/>
        <path sodipodi:type="arc" style="fill: rgb(230, 103, 0); fill-opacity: 0.531579; stroke: none; stroke-width: 5; stroke-linecap: round; stroke-linejoin: round; stroke-miterlimit: 4; stroke-dasharray: none; stroke-opacity: 0.826316;" id="path6933" sodipodi:cx="422.66745" sodipodi:cy="531.70605" sodipodi:rx="8.7751026" sodipodi:ry="8.7751026" d="M 431.44255 531.70605 A 8.7751026 8.7751026 0 1 1  413.89235,531.70605 A 8.7751026 8.7751026 0 1 1  431.44255 531.70605 z" transform="translate(432.38, 107.421)"/>
        <path sodipodi:type="arc" style="fill: rgb(230, 103, 0); fill-opacity: 0.531579; stroke: none; stroke-width: 5; stroke-linecap: round; stroke-linejoin: round; stroke-miterlimit: 4; stroke-dasharray: none; stroke-opacity: 0.826316;" id="path6935" sodipodi:cx="422.66745" sodipodi:cy="531.70605" sodipodi:rx="8.7751026" sodipodi:ry="8.7751026" d="M 431.44255 531.70605 A 8.7751026 8.7751026 0 1 1  413.89235,531.70605 A 8.7751026 8.7751026 0 1 1  431.44255 531.70605 z" transform="translate(172.052, 57.6955)"/>
        <path sodipodi:type="arc" style="fill: rgb(230, 103, 0); fill-opacity: 0.531579; stroke: none; stroke-width: 5; stroke-linecap: round; stroke-linejoin: round; stroke-miterlimit: 4; stroke-dasharray: none; stroke-opacity: 0.826316;" id="path6937" sodipodi:cx="422.66745" sodipodi:cy="531.70605" sodipodi:rx="8.7751026" sodipodi:ry="8.7751026" d="M 431.44255 531.70605 A 8.7751026 8.7751026 0 1 1  413.89235,531.70605 A 8.7751026 8.7751026 0 1 1  431.44255 531.70605 z" transform="translate(176.44, 79.6332)"/>
        <path sodipodi:type="arc" style="fill: rgb(230, 103, 0); fill-opacity: 0.531579; stroke: none; stroke-width: 5; stroke-linecap: round; stroke-linejoin: round; stroke-miterlimit: 4; stroke-dasharray: none; stroke-opacity: 0.826316;" id="path6939" sodipodi:cx="422.66745" sodipodi:cy="531.70605" sodipodi:rx="8.7751026" sodipodi:ry="8.7751026" d="M 431.44255 531.70605 A 8.7751026 8.7751026 0 1 1  413.89235,531.70605 A 8.7751026 8.7751026 0 1 1  431.44255 531.70605 z" transform="translate(201.303, 108.884)"/>
        <path sodipodi:type="arc" style="fill: rgb(230, 103, 0); fill-opacity: 0.531579; stroke: none; stroke-width: 5; stroke-linecap: round; stroke-linejoin: round; stroke-miterlimit: 4; stroke-dasharray: none; stroke-opacity: 0.826316;" id="path6941" sodipodi:cx="422.66745" sodipodi:cy="531.70605" sodipodi:rx="8.7751026" sodipodi:ry="8.7751026" d="M 431.44255 531.70605 A 8.7751026 8.7751026 0 1 1  413.89235,531.70605 A 8.7751026 8.7751026 0 1 1  431.44255 531.70605 z" transform="translate(205.69, 59.158)"/>
        <path sodipodi:type="arc" style="fill: rgb(230, 103, 0); fill-opacity: 0.531579; stroke: none; stroke-width: 5; stroke-linecap: round; stroke-linejoin: round; stroke-miterlimit: 4; stroke-dasharray: none; stroke-opacity: 0.826316;" id="path6943" sodipodi:cx="422.66745" sodipodi:cy="531.70605" sodipodi:rx="8.7751026" sodipodi:ry="8.7751026" d="M 431.44255 531.70605 A 8.7751026 8.7751026 0 1 1  413.89235,531.70605 A 8.7751026 8.7751026 0 1 1  431.44255 531.70605 z" transform="translate(151.577, 34.2952)"/>
        <path sodipodi:type="arc" style="fill: rgb(230, 103, 0); fill-opacity: 0.531579; stroke: none; stroke-width: 5; stroke-linecap: round; stroke-linejoin: round; stroke-miterlimit: 4; stroke-dasharray: none; stroke-opacity: 0.826316;" id="path6945" sodipodi:cx="422.66745" sodipodi:cy="531.70605" sodipodi:rx="8.7751026" sodipodi:ry="8.7751026" d="M 431.44255 531.70605 A 8.7751026 8.7751026 0 1 1  413.89235,531.70605 A 8.7751026 8.7751026 0 1 1  431.44255 531.70605 z" transform="translate(177.902, 16.745)"/>
        <path sodipodi:type="arc" style="fill: rgb(230, 103, 0); fill-opacity: 0.531579; stroke: none; stroke-width: 5; stroke-linecap: round; stroke-linejoin: round; stroke-miterlimit: 4; stroke-dasharray: none; stroke-opacity: 0.826316;" id="path6947" sodipodi:cx="422.66745" sodipodi:cy="531.70605" sodipodi:rx="8.7751026" sodipodi:ry="8.7751026" d="M 431.44255 531.70605 A 8.7751026 8.7751026 0 1 1  413.89235,531.70605 A 8.7751026 8.7751026 0 1 1  431.44255 531.70605 z" transform="translate(141.339, -13.9679)"/>
        <path sodipodi:type="arc" style="fill: rgb(230, 103, 0); fill-opacity: 0.531579; stroke: none; stroke-width: 5; stroke-linecap: round; stroke-linejoin: round; stroke-miterlimit: 4; stroke-dasharray: none; stroke-opacity: 0.826316;" id="path6949" sodipodi:cx="422.66745" sodipodi:cy="531.70605" sodipodi:rx="8.7751026" sodipodi:ry="8.7751026" d="M 431.44255 531.70605 A 8.7751026 8.7751026 0 1 1  413.89235,531.70605 A 8.7751026 8.7751026 0 1 1  431.44255 531.70605 z" transform="translate(145.727, -60.7684)"/>
        <path sodipodi:type="arc" style="fill: rgb(230, 103, 0); fill-opacity: 0.531579; stroke: none; stroke-width: 5; stroke-linecap: round; stroke-linejoin: round; stroke-miterlimit: 4; stroke-dasharray: none; stroke-opacity: 0.826316;" id="path6951" sodipodi:cx="422.66745" sodipodi:cy="531.70605" sodipodi:rx="8.7751026" sodipodi:ry="8.7751026" d="M 431.44255 531.70605 A 8.7751026 8.7751026 0 1 1  413.89235,531.70605 A 8.7751026 8.7751026 0 1 1  431.44255 531.70605 z" transform="translate(173.515, -2.26774)"/>
        <path sodipodi:type="arc" style="fill: rgb(230, 103, 0); fill-opacity: 0.531579; stroke: none; stroke-width: 5; stroke-linecap: round; stroke-linejoin: round; stroke-miterlimit: 4; stroke-dasharray: none; stroke-opacity: 0.826316;" id="path6953" sodipodi:cx="422.66745" sodipodi:cy="531.70605" sodipodi:rx="8.7751026" sodipodi:ry="8.7751026" d="M 431.44255 531.70605 A 8.7751026 8.7751026 0 1 1  413.89235,531.70605 A 8.7751026 8.7751026 0 1 1  431.44255 531.70605 z" transform="translate(134.027, 15.2825)"/>
        <path sodipodi:type="arc" style="fill: rgb(230, 103, 0); fill-opacity: 0.531579; stroke: none; stroke-width: 5; stroke-linecap: round; stroke-linejoin: round; stroke-miterlimit: 4; stroke-dasharray: none; stroke-opacity: 0.826316;" id="path6955" sodipodi:cx="422.66745" sodipodi:cy="531.70605" sodipodi:rx="8.7751026" sodipodi:ry="8.7751026" d="M 431.44255 531.70605 A 8.7751026 8.7751026 0 1 1  413.89235,531.70605 A 8.7751026 8.7751026 0 1 1  431.44255 531.70605 z" transform="translate(217.39, 21.1325)"/>
        <path sodipodi:type="arc" style="fill: rgb(230, 103, 0); fill-opacity: 0.531579; stroke: none; stroke-width: 5; stroke-linecap: round; stroke-linejoin: round; stroke-miterlimit: 4; stroke-dasharray: none; stroke-opacity: 0.826316;" id="path6957" sodipodi:cx="422.66745" sodipodi:cy="531.70605" sodipodi:rx="8.7751026" sodipodi:ry="8.7751026" d="M 431.44255 531.70605 A 8.7751026 8.7751026 0 1 1  413.89235,531.70605 A 8.7751026 8.7751026 0 1 1  431.44255 531.70605 z" transform="translate(255.416, 81.0957)"/>
        <path sodipodi:type="arc" style="fill: rgb(230, 103, 0); fill-opacity: 0.531579; stroke: none; stroke-width: 5; stroke-linecap: round; stroke-linejoin: round; stroke-miterlimit: 4; stroke-dasharray: none; stroke-opacity: 0.826316;" id="path6959" sodipodi:cx="422.66745" sodipodi:cy="531.70605" sodipodi:rx="8.7751026" sodipodi:ry="8.7751026" d="M 431.44255 531.70605 A 8.7751026 8.7751026 0 1 1  413.89235,531.70605 A 8.7751026 8.7751026 0 1 1  431.44255 531.70605 z" transform="translate(310.991, 105.959)"/>
        <path sodipodi:type="arc" style="fill: rgb(230, 103, 0); fill-opacity: 0.531579; stroke: none; stroke-width: 5; stroke-linecap: round; stroke-linejoin: round; stroke-miterlimit: 4; stroke-dasharray: none; stroke-opacity: 0.826316;" id="path6961" sodipodi:cx="422.66745" sodipodi:cy="531.70605" sodipodi:rx="8.7751026" sodipodi:ry="8.7751026" d="M 431.44255 531.70605 A 8.7751026 8.7751026 0 1 1  413.89235,531.70605 A 8.7751026 8.7751026 0 1 1  431.44255 531.70605 z" transform="translate(271.503, 146.909)"/>
        <path sodipodi:type="arc" style="fill: rgb(230, 103, 0); fill-opacity: 0.531579; stroke: none; stroke-width: 5; stroke-linecap: round; stroke-linejoin: round; stroke-miterlimit: 4; stroke-dasharray: none; stroke-opacity: 0.826316;" id="path6963" sodipodi:cx="422.66745" sodipodi:cy="531.70605" sodipodi:rx="8.7751026" sodipodi:ry="8.7751026" d="M 431.44255 531.70605 A 8.7751026 8.7751026 0 1 1  413.89235,531.70605 A 8.7751026 8.7751026 0 1 1  431.44255 531.70605 z" transform="translate(275.891, 95.7209)"/>
        <path sodipodi:type="arc" style="fill: rgb(230, 103, 0); fill-opacity: 0.531579; stroke: none; stroke-width: 5; stroke-linecap: round; stroke-linejoin: round; stroke-miterlimit: 4; stroke-dasharray: none; stroke-opacity: 0.826316;" id="path6965" sodipodi:cx="422.66745" sodipodi:cy="531.70605" sodipodi:rx="8.7751026" sodipodi:ry="8.7751026" d="M 431.44255 531.70605 A 8.7751026 8.7751026 0 1 1  413.89235,531.70605 A 8.7751026 8.7751026 0 1 1  431.44255 531.70605 z" transform="translate(335.854, 100.108)"/>
        <path sodipodi:type="arc" style="fill: rgb(230, 103, 0); fill-opacity: 0.531579; stroke: none; stroke-width: 5; stroke-linecap: round; stroke-linejoin: round; stroke-miterlimit: 4; stroke-dasharray: none; stroke-opacity: 0.826316;" id="path6967" sodipodi:cx="422.66745" sodipodi:cy="531.70605" sodipodi:rx="8.7751026" sodipodi:ry="8.7751026" d="M 431.44255 531.70605 A 8.7751026 8.7751026 0 1 1  413.89235,531.70605 A 8.7751026 8.7751026 0 1 1  431.44255 531.70605 z" transform="translate(334.392, 145.447)"/>
        <path sodipodi:type="arc" style="fill: rgb(230, 103, 0); fill-opacity: 0.531579; stroke: none; stroke-width: 5; stroke-linecap: round; stroke-linejoin: round; stroke-miterlimit: 4; stroke-dasharray: none; stroke-opacity: 0.826316;" id="path6969" sodipodi:cx="422.66745" sodipodi:cy="531.70605" sodipodi:rx="8.7751026" sodipodi:ry="8.7751026" d="M 431.44255 531.70605 A 8.7751026 8.7751026 0 1 1  413.89235,531.70605 A 8.7751026 8.7751026 0 1 1  431.44255 531.70605 z" transform="translate(359.254, 146.909)"/>
        <path sodipodi:type="arc" style="fill: rgb(230, 103, 0); fill-opacity: 0.531579; stroke: none; stroke-width: 5; stroke-linecap: round; stroke-linejoin: round; stroke-miterlimit: 4; stroke-dasharray: none; stroke-opacity: 0.826316;" id="path6971" sodipodi:cx="422.66745" sodipodi:cy="531.70605" sodipodi:rx="8.7751026" sodipodi:ry="8.7751026" d="M 431.44255 531.70605 A 8.7751026 8.7751026 0 1 1  413.89235,531.70605 A 8.7751026 8.7751026 0 1 1  431.44255 531.70605 z" transform="translate(404.592, 138.134)"/>
        <path sodipodi:type="arc" style="fill: rgb(230, 103, 0); fill-opacity: 0.531579; stroke: none; stroke-width: 5; stroke-linecap: round; stroke-linejoin: round; stroke-miterlimit: 4; stroke-dasharray: none; stroke-opacity: 0.826316;" id="path6973" sodipodi:cx="422.66745" sodipodi:cy="531.70605" sodipodi:rx="8.7751026" sodipodi:ry="8.7751026" d="M 431.44255 531.70605 A 8.7751026 8.7751026 0 1 1  413.89235,531.70605 A 8.7751026 8.7751026 0 1 1  431.44255 531.70605 z" transform="translate(389.967, 92.7959)"/>
        <path sodipodi:type="arc" style="fill: rgb(230, 103, 0); fill-opacity: 0.531579; stroke: none; stroke-width: 5; stroke-linecap: round; stroke-linejoin: round; stroke-miterlimit: 4; stroke-dasharray: none; stroke-opacity: 0.826316;" id="path6975" sodipodi:cx="422.66745" sodipodi:cy="531.70605" sodipodi:rx="8.7751026" sodipodi:ry="8.7751026" d="M 431.44255 531.70605 A 8.7751026 8.7751026 0 1 1  413.89235,531.70605 A 8.7751026 8.7751026 0 1 1  431.44255 531.70605 z" transform="translate(482.106, 76.7082)"/>
        <path sodipodi:type="arc" style="fill: rgb(230, 103, 0); fill-opacity: 0.531579; stroke: none; stroke-width: 5; stroke-linecap: round; stroke-linejoin: round; stroke-miterlimit: 4; stroke-dasharray: none; stroke-opacity: 0.826316;" id="path6977" sodipodi:cx="422.66745" sodipodi:cy="531.70605" sodipodi:rx="8.7751026" sodipodi:ry="8.7751026" d="M 431.44255 531.70605 A 8.7751026 8.7751026 0 1 1  413.89235,531.70605 A 8.7751026 8.7751026 0 1 1  431.44255 531.70605 z" transform="translate(290.516, 84.0208)"/>
        <path sodipodi:type="arc" style="fill: rgb(230, 103, 0); fill-opacity: 0.531579; stroke: none; stroke-width: 5; stroke-linecap: round; stroke-linejoin: round; stroke-miterlimit: 4; stroke-dasharray: none; stroke-opacity: 0.826316;" id="path6979" sodipodi:cx="422.66745" sodipodi:cy="531.70605" sodipodi:rx="8.7751026" sodipodi:ry="8.7751026" d="M 431.44255 531.70605 A 8.7751026 8.7751026 0 1 1  413.89235,531.70605 A 8.7751026 8.7751026 0 1 1  431.44255 531.70605 z" transform="translate(268.578, 105.959)"/>
        <path sodipodi:type="arc" style="fill: rgb(230, 103, 0); fill-opacity: 0.531579; stroke: none; stroke-width: 5; stroke-linecap: round; stroke-linejoin: round; stroke-miterlimit: 4; stroke-dasharray: none; stroke-opacity: 0.826316;" id="path6981" sodipodi:cx="422.66745" sodipodi:cy="531.70605" sodipodi:rx="8.7751026" sodipodi:ry="8.7751026" d="M 431.44255 531.70605 A 8.7751026 8.7751026 0 1 1  413.89235,531.70605 A 8.7751026 8.7751026 0 1 1  431.44255 531.70605 z" transform="translate(261.266, 82.5583)"/>
        <path sodipodi:type="arc" style="fill: rgb(230, 103, 0); fill-opacity: 0.531579; stroke: none; stroke-width: 5; stroke-linecap: round; stroke-linejoin: round; stroke-miterlimit: 4; stroke-dasharray: none; stroke-opacity: 0.826316;" id="path6983" sodipodi:cx="422.66745" sodipodi:cy="531.70605" sodipodi:rx="8.7751026" sodipodi:ry="8.7751026" d="M 431.44255 531.70605 A 8.7751026 8.7751026 0 1 1  413.89235,531.70605 A 8.7751026 8.7751026 0 1 1  431.44255 531.70605 z" transform="translate(220.315, 56.2329)"/>
        <path sodipodi:type="arc" style="fill: rgb(230, 103, 0); fill-opacity: 0.531579; stroke: none; stroke-width: 5; stroke-linecap: round; stroke-linejoin: round; stroke-miterlimit: 4; stroke-dasharray: none; stroke-opacity: 0.826316;" id="path6985" sodipodi:cx="422.66745" sodipodi:cy="531.70605" sodipodi:rx="8.7751026" sodipodi:ry="8.7751026" d="M 431.44255 531.70605 A 8.7751026 8.7751026 0 1 1  413.89235,531.70605 A 8.7751026 8.7751026 0 1 1  431.44255 531.70605 z" transform="translate(204.228, 79.6332)"/>
        <path sodipodi:type="arc" style="fill: rgb(230, 103, 0); fill-opacity: 0.531579; stroke: none; stroke-width: 5; stroke-linecap: round; stroke-linejoin: round; stroke-miterlimit: 4; stroke-dasharray: none; stroke-opacity: 0.826316;" id="path6987" sodipodi:cx="422.66745" sodipodi:cy="531.70605" sodipodi:rx="8.7751026" sodipodi:ry="8.7751026" d="M 431.44255 531.70605 A 8.7751026 8.7751026 0 1 1  413.89235,531.70605 A 8.7751026 8.7751026 0 1 1  431.44255 531.70605 z" transform="translate(185.215, 63.5455)"/>
        <path sodipodi:type="arc" style="fill: rgb(230, 103, 0); fill-opacity: 0.531579; stroke: none; stroke-width: 5; stroke-linecap: round; stroke-linejoin: round; stroke-miterlimit: 4; stroke-dasharray: none; stroke-opacity: 0.826316;" id="path6989" sodipodi:cx="422.66745" sodipodi:cy="531.70605" sodipodi:rx="8.7751026" sodipodi:ry="8.7751026" d="M 431.44255 531.70605 A 8.7751026 8.7751026 0 1 1  413.89235,531.70605 A 8.7751026 8.7751026 0 1 1  431.44255 531.70605 z" transform="translate(230.553, 98.6459)"/>
        <path sodipodi:type="arc" style="fill: rgb(230, 103, 0); fill-opacity: 0.531579; stroke: none; stroke-width: 5; stroke-linecap: round; stroke-linejoin: round; stroke-miterlimit: 4; stroke-dasharray: none; stroke-opacity: 0.826316;" id="path6991" sodipodi:cx="422.66745" sodipodi:cy="531.70605" sodipodi:rx="8.7751026" sodipodi:ry="8.7751026" d="M 431.44255 531.70605 A 8.7751026 8.7751026 0 1 1  413.89235,531.70605 A 8.7751026 8.7751026 0 1 1  431.44255 531.70605 z" transform="translate(252.491, 98.6459)"/>
        <path sodipodi:type="arc" style="fill: rgb(230, 103, 0); fill-opacity: 0.531579; stroke: none; stroke-width: 5; stroke-linecap: round; stroke-linejoin: round; stroke-miterlimit: 4; stroke-dasharray: none; stroke-opacity: 0.826316;" id="path6993" sodipodi:cx="422.66745" sodipodi:cy="531.70605" sodipodi:rx="8.7751026" sodipodi:ry="8.7751026" d="M 431.44255 531.70605 A 8.7751026 8.7751026 0 1 1  413.89235,531.70605 A 8.7751026 8.7751026 0 1 1  431.44255 531.70605 z" transform="translate(246.641, 70.8581)"/>
        <path sodipodi:type="arc" style="fill: rgb(230, 103, 0); fill-opacity: 0.531579; stroke: none; stroke-width: 5; stroke-linecap: round; stroke-linejoin: round; stroke-miterlimit: 4; stroke-dasharray: none; stroke-opacity: 0.826316;" id="path6995" sodipodi:cx="422.66745" sodipodi:cy="531.70605" sodipodi:rx="8.7751026" sodipodi:ry="8.7751026" d="M 431.44255 531.70605 A 8.7751026 8.7751026 0 1 1  413.89235,531.70605 A 8.7751026 8.7751026 0 1 1  431.44255 531.70605 z" transform="translate(237.865, 79.6332)"/>
        <path sodipodi:type="arc" style="fill: rgb(230, 103, 0); fill-opacity: 0.531579; stroke: none; stroke-width: 5; stroke-linecap: round; stroke-linejoin: round; stroke-miterlimit: 4; stroke-dasharray: none; stroke-opacity: 0.826316;" id="path6997" sodipodi:cx="422.66745" sodipodi:cy="531.70605" sodipodi:rx="8.7751026" sodipodi:ry="8.7751026" d="M 431.44255 531.70605 A 8.7751026 8.7751026 0 1 1  413.89235,531.70605 A 8.7751026 8.7751026 0 1 1  431.44255 531.70605 z" transform="translate(328.542, 132.284)"/>
        <path sodipodi:type="arc" style="fill: rgb(230, 103, 0); fill-opacity: 0.531579; stroke: none; stroke-width: 5; stroke-linecap: round; stroke-linejoin: round; stroke-miterlimit: 4; stroke-dasharray: none; stroke-opacity: 0.826316;" id="path6999" sodipodi:cx="422.66745" sodipodi:cy="531.70605" sodipodi:rx="8.7751026" sodipodi:ry="8.7751026" d="M 431.44255 531.70605 A 8.7751026 8.7751026 0 1 1  413.89235,531.70605 A 8.7751026 8.7751026 0 1 1  431.44255 531.70605 z" transform="translate(302.216, 104.496)"/>
        <path sodipodi:type="arc" style="fill: rgb(230, 103, 0); fill-opacity: 0.531579; stroke: none; stroke-width: 5; stroke-linecap: round; stroke-linejoin: round; stroke-miterlimit: 4; stroke-dasharray: none; stroke-opacity: 0.826316;" id="path7001" sodipodi:cx="422.66745" sodipodi:cy="531.70605" sodipodi:rx="8.7751026" sodipodi:ry="8.7751026" d="M 431.44255 531.70605 A 8.7751026 8.7751026 0 1 1  413.89235,531.70605 A 8.7751026 8.7751026 0 1 1  431.44255 531.70605 z" transform="translate(347.554, 113.271)"/>
      </g>
    </g>
    <g id="g8008" transform="matrix(-7.79426, 0, 0, 7.77906, 5727.08, -3099.85)">
      <path transform="matrix(0.0638426, 0, 0, 0.0618179, 606.863, 505.979)" d="M 694.28572 620.93359 A 231.42857 205.71428 0 1 1  231.42857,620.93359 A 231.42857 205.71428 0 1 1  694.28572 620.93359 z" sodipodi:ry="205.71428" sodipodi:rx="231.42857" sodipodi:cy="620.93359" sodipodi:cx="462.85715" id="path39520" style="fill: rgb(230, 57, 0); fill-opacity: 1; stroke: rgb(230, 0, 57); stroke-width: 16.897; stroke-linecap: round; stroke-linejoin: round; stroke-miterlimit: 4; stroke-dasharray: none; stroke-opacity: 1;" sodipodi:type="arc"/>
      <path sodipodi:nodetypes="czcccczsczczcccccc" id="path39522" d="M 646.29592,536.74621 C 644.83753,534.57049 644.38467,534.93193 642.33259,534.22544 C 640.2805,533.51895 637.63615,534.73204 637.63615,534.73204 C 637.63615,534.73204 641.54992,531.90386 645.16828,532.25229 C 645.82006,531.03958 639.66287,531.255 639.66287,531.255 L 636.77754,535.35649 C 636.77754,535.35649 634.72112,532.42124 633.12506,532.50955 C 631.529,532.59786 627.24666,535.7932 628.4325,535.25769 C 631.58762,533.83288 636.41273,535.70974 636.41273,535.70974 C 636.41273,535.70974 632.62777,536.68116 630.94051,538.35908 C 629.25324,540.03699 629.66365,542.4214 629.66365,542.4214 C 629.66365,542.4214 630.55222,540.78136 632.42189,538.97098 C 634.29157,537.1606 637.14236,535.17987 637.14236,535.17987 L 640.20282,536.92283 L 645.89791,541.36166 L 641.29537,535.88452 L 636.34103,535.00325 L 636.95995,534.65" style="fill: rgb(100, 102, 0); fill-opacity: 1; fill-rule: evenodd; stroke: rgb(174, 96, 15); stroke-width: 0.117727; stroke-linecap: butt; stroke-linejoin: miter; stroke-miterlimit: 4; stroke-dasharray: none; stroke-opacity: 0.941176;"/>
    </g>
    <g id="g8040" transform="matrix(-7.44225, 0, 0, 7.43232, 5541.09, -2931.01)">
      <path sodipodi:nodetypes="ccccccccccccc" id="path25796" d="M 685.0643,544.91761 L 697.48811,526.1342 L 704.49641,504.48553 L 706.08921,487.6123 L 702.58506,452.27403 L 699.39947,448.13531 L 695.57676,449.72712 L 698.44379,455.45765 L 701.31082,473.28597 L 700.35514,500.66517 L 694.62108,523.26894 L 681.2416,544.59925 L 685.0643,544.91761 z " style="fill: rgb(153, 204, 0); fill-opacity: 0.826667; fill-rule: evenodd; stroke: rgb(172, 230, 0); stroke-width: 1.23085; stroke-linecap: butt; stroke-linejoin: miter; stroke-miterlimit: 4; stroke-dasharray: none; stroke-opacity: 1;"/>
      <path sodipodi:nodetypes="ccccccccccccc" id="path28707" d="M 683.29377,545.24169 L 693.63219,525.23604 L 698.27909,502.96153 L 698.05365,486.01489 L 690.78089,451.25528 L 687.1699,447.48151 L 683.53986,449.47352 L 687.00479,454.86404 L 691.76678,472.28271 L 693.75206,499.60663 L 690.47446,522.69428 L 679.45893,545.3345 L 683.29377,545.24169 z " style="fill: rgb(153, 204, 0); fill-opacity: 0.826667; fill-rule: evenodd; stroke: rgb(172, 230, 0); stroke-width: 1.23085; stroke-linecap: butt; stroke-linejoin: miter; stroke-miterlimit: 4; stroke-dasharray: none; stroke-opacity: 1;"/>
      <path sodipodi:nodetypes="ccccccccccccc" id="path28711" d="M 678.36633,544.85216 L 685.07848,527.30932 L 686.63398,508.29317 L 684.57499,494.10834 L 674.48014,465.52577 L 670.95168,462.63482 L 668.0412,464.57718 L 671.62162,468.834 L 677.64377,483.07321 L 682.36183,505.82214 L 682.07634,525.41674 L 675.07031,545.21835 L 678.36633,544.85216 z " style="fill: rgb(153, 204, 0); fill-opacity: 0.826667; fill-rule: evenodd; stroke: rgb(172, 230, 0); stroke-width: 1.23085; stroke-linecap: butt; stroke-linejoin: miter; stroke-miterlimit: 4; stroke-dasharray: none; stroke-opacity: 1;"/>
      <path sodipodi:nodetypes="ccccccccccccc" id="path28709" d="M 681.34954,544.4495 L 689.48561,519.14873 L 691.16039,492.10097 L 688.38884,472.13777 L 675.37777,432.30448 L 670.93005,428.44123 L 667.3223,431.38573 L 671.85417,437.18093 L 679.57638,456.95939 L 685.78974,488.88185 L 685.70934,516.66535 L 677.23805,545.18611 L 681.34954,544.4495 z " style="fill: rgb(153, 204, 0); fill-opacity: 0.826667; fill-rule: evenodd; stroke: rgb(172, 230, 0); stroke-width: 1.23085; stroke-linecap: butt; stroke-linejoin: miter; stroke-miterlimit: 4; stroke-dasharray: none; stroke-opacity: 1;"/>
      <path id="path29684" d="M 677.62474,461.77437 L 667.66963,459.39192 L 652.73695,443.19121 L 660.47983,442.71472 L 647.20633,416.03121 L 668.22269,421.7491 C 668.22269,421.7491 684.26149,435.09086 683.70843,433.18489 C 683.15537,431.27892 684.26149,425.08454 684.26149,425.08454 L 689.79212,436.99683 L 689.23905,455.10349 L 677.62474,461.77437 z " style="fill: rgb(153, 204, 0); fill-opacity: 0.826667; fill-rule: evenodd; stroke: rgb(172, 230, 0); stroke-width: 1.23085; stroke-linecap: butt; stroke-linejoin: miter; stroke-miterlimit: 4; stroke-dasharray: none; stroke-opacity: 1;"/>
      <path id="path30655" d="M 672.08008,484.39529 L 662.78714,482.45874 L 648.84774,469.29023 L 656.07558,468.90292 L 643.68501,447.2136 L 663.30342,451.86131 C 663.30342,451.86131 678.27537,462.70597 677.75909,461.15673 C 677.24282,459.6075 678.27537,454.57247 678.27537,454.57247 L 683.4381,464.25521 L 682.92183,478.97296 L 672.08008,484.39529 z " style="fill: rgb(153, 204, 0); fill-opacity: 0.826667; fill-rule: evenodd; stroke: rgb(172, 230, 0); stroke-width: 1.23085; stroke-linecap: butt; stroke-linejoin: miter; stroke-miterlimit: 4; stroke-dasharray: none; stroke-opacity: 1;"/>
      <path id="path30657" d="M 680.34868,485.75682 L 674.66519,477.24823 L 674.72581,455.22168 L 680.73027,460.13044 L 689.136,431.54007 L 700.6665,450.00759 C 700.6665,450.00759 703.36135,470.6879 704.25157,468.91401 C 705.1418,467.14014 710.16523,463.34688 710.16523,463.34688 L 706.12284,475.84215 L 693.40531,488.75031 L 680.34868,485.75682 z " style="fill: rgb(153, 204, 0); fill-opacity: 0.826667; fill-rule: evenodd; stroke: rgb(172, 230, 0); stroke-width: 1.23085; stroke-linecap: butt; stroke-linejoin: miter; stroke-miterlimit: 4; stroke-dasharray: none; stroke-opacity: 1;"/>
      <path inkscape:transform-center-y="46.894535" inkscape:transform-center-x="-85.532843" id="path30659" d="M 685.49087,451.69572 L 679.50382,445.42673 L 676.55995,427.2503 L 682.33023,430.5077 L 685.58562,405.81703 L 697.8959,419.52976 C 697.8959,419.52976 702.99836,436.23249 703.51368,434.65196 C 704.02898,433.07143 707.78216,429.28036 707.78216,429.28036 L 706.04608,440.11989 L 696.99379,452.44364 L 685.49087,451.69572 z " style="fill: rgb(153, 204, 0); fill-opacity: 0.826667; fill-rule: evenodd; stroke: rgb(172, 230, 0); stroke-width: 1.23085; stroke-linecap: butt; stroke-linejoin: miter; stroke-miterlimit: 4; stroke-dasharray: none; stroke-opacity: 1;"/>
      <path id="path30661" d="M 675.3746,485.26921 L 673.2089,472.98152 L 685.09077,448.58399 L 689.56656,457.04043 L 714.84628,429.55033 L 718.59361,455.81619 C 718.59361,455.81619 710.69534,480.10315 712.70026,478.58251 C 714.70518,477.06187 722.68549,475.37538 722.68549,475.37538 L 711.20067,487.20481 L 689.2253,495.13971 L 675.3746,485.26921 z " style="fill: rgb(153, 204, 0); fill-opacity: 0.826667; fill-rule: evenodd; stroke: rgb(172, 230, 0); stroke-width: 1.23085; stroke-linecap: butt; stroke-linejoin: miter; stroke-miterlimit: 4; stroke-dasharray: none; stroke-opacity: 1;"/>
      <path sodipodi:nodetypes="cscczsc" id="path22354" d="M 680.61551,541.30635 C 668.13485,533.74012 652.78546,536.16195 646.49487,546.56323 C 637.35241,561.67961 649.62341,569.616 650.48011,580.03053 C 653.2866,588.76835 643.07723,599.09251 643.07723,599.09251 C 643.07723,599.09251 657.25717,587.97815 666.94526,586.89822 C 676.54066,585.82862 684.38917,584.68082 691.71462,573.97712 C 698.62613,563.8676 693.09616,548.87259 680.61551,541.30635 z " style="opacity: 1; fill: rgb(222, 135, 135); fill-opacity: 1; stroke: rgb(153, 51, 51); stroke-width: 0.275511; stroke-linecap: round; stroke-linejoin: round; stroke-miterlimit: 4; stroke-dasharray: none; stroke-opacity: 1;"/>
      <path transform="matrix(0.153505, 0.0930601, -0.0936746, 0.154328, 679.781, 407.226)" d="M 526.18111 724.70361 A 132.99083 92.515358 0 1 1  260.19945,724.70361 A 132.99083 92.515358 0 1 1  526.18111 724.70361 z" sodipodi:ry="92.515358" sodipodi:rx="132.99083" sodipodi:cy="724.70361" sodipodi:cx="393.19028" id="path28713" style="opacity: 1; fill: rgb(153, 51, 51); fill-opacity: 1; stroke: none; stroke-width: 2; stroke-linecap: round; stroke-linejoin: round; stroke-miterlimit: 4; stroke-dasharray: none; stroke-opacity: 1;" sodipodi:type="arc"/>
    </g>
    <path style="font-size: 36.3527px; font-style: normal; font-variant: normal; font-weight: bold; font-stretch: normal; text-align: start; line-height: 125%; text-anchor: start; fill: rgb(172, 230, 0); fill-opacity: 1; stroke: rgb(230, 172, 0); stroke-width: 14.4461px; stroke-linecap: butt; stroke-linejoin: miter; stroke-opacity: 1; font-family: Helvetica;" d="M 1075.7031,980.58851 C 1107.9956,980.58851 1133.5825,969.58031 1152.4642,947.56341 C 1171.5219,925.54682 1181.0509,894.23415 1181.0512,853.6255 C 1181.0509,813.18012 1171.5219,781.94903 1152.4642,759.93207 C 1133.5825,737.75254 1107.9956,726.66268 1075.7031,726.66239 C 1043.4104,726.66268 1017.647,737.67109 998.41285,759.68744 C 979.17832,781.70441 969.56109,813.01708 969.56125,853.6255 C 969.56109,894.23415 979.17832,925.54682 998.41285,947.56341 C 1017.647,969.58031 1043.4104,980.58851 1075.7031,980.58851 M 1262.5768,853.6255 C 1262.5763,918.3711 1242.9007,967.94931 1203.5501,1002.3605 C 1174.0805,1030.4116 1131.4651,1044.437 1075.7031,1044.437 C 1019.941,1044.437 977.32545,1030.4116 947.85635,1002.3605 C 908.32874,967.94931 888.565,918.3711 888.5651,853.6255 C 888.565,787.57557 908.32874,737.99718 947.85635,704.89027 C 977.32545,676.83979 1019.941,662.81424 1075.7031,662.81383 C 1131.4651,662.81424 1174.0805,676.83979 1203.5501,704.89027 C 1242.9007,737.99718 1262.5763,787.57557 1262.5768,853.6255 M 1075.7031,662.81383 L 1075.7031,662.81383 M 1517.2118,901.0837 C 1517.2115,880.53489 1512.0941,862.3507 1501.8595,846.53118 C 1491.801,830.71199 1475.39,822.80225 1452.6265,822.80211 C 1425.2747,822.80225 1406.4816,834.78914 1396.2469,858.76263 C 1390.953,871.48356 1388.3061,887.62917 1388.3061,907.19949 C 1388.3061,938.18602 1397.2173,959.95811 1415.0401,972.51571 C 1425.6276,979.85471 1438.1565,983.52411 1452.6265,983.52411 C 1473.6254,983.52411 1489.5952,976.02211 1500.536,961.01811 C 1511.6528,946.01421 1517.2115,926.03607 1517.2118,901.0837 M 1474.3315,761.88922 C 1508.0355,761.88942 1536.5341,773.38697 1559.8274,796.38199 C 1583.2967,819.37742 1595.0314,853.13637 1595.0316,897.65897 C 1595.0314,944.62791 1583.5614,980.42551 1560.6216,1005.0515 C 1537.8575,1029.6776 1508.4768,1041.9908 1472.4787,1041.9908 C 1449.5383,1041.9908 1430.4804,1036.6904 1415.3048,1026.0897 C 1407.011,1020.2186 1398.8936,1011.6566 1390.9531,1000.4035 L 1390.9531,1139.3535 L 1316.3095,1139.3535 L 1316.3095,767.76016 L 1388.5708,767.76016 L 1388.5708,807.14578 C 1396.688,795.56678 1405.3346,786.43392 1414.5107,779.74711 C 1431.2745,767.84204 1451.2147,761.88942 1474.3315,761.88922 M 1762.5825,818.15405 C 1745.1126,818.15433 1731.5251,823.20999 1721.8197,833.32112 C 1712.2905,843.43266 1706.291,857.13198 1703.8205,874.4191 L 1821.0797,874.4191 C 1819.8443,855.9904 1813.7563,842.04651 1802.8159,832.58728 C 1792.0515,822.96543 1778.6403,818.15433 1762.5825,818.15405 M 1762.5825,760.6659 C 1786.5811,760.66618 1808.1978,764.82497 1827.4324,773.14213 C 1846.6665,781.45978 1862.548,794.58823 1875.0773,812.52753 C 1886.3706,828.34719 1893.6937,846.6945 1897.0468,867.56939 C 1898.9876,879.80097 1899.7817,897.41446 1899.429,920.40956 L 1701.9678,920.40956 C 1703.0264,947.15571 1712.1143,965.91071 1729.2311,976.67441 C 1739.6422,983.36101 1752.1711,986.70431 1766.8176,986.70421 C 1782.3461,986.70431 1794.9631,982.62711 1804.6688,974.47271 C 1809.9625,970.06951 1814.6387,963.95371 1818.6975,956.12541 L 1895.7234,956.12541 C 1893.782,971.94491 1884.8705,988.00901 1868.9892,1004.3177 C 1844.2842,1030.2483 1809.6977,1043.2138 1765.2295,1043.2138 C 1728.5252,1043.2138 1696.1443,1032.287 1668.087,1010.4335 C 1640.0294,988.57971 1626.0006,953.02691 1626.0006,903.77455 C 1626.0006,857.62119 1638.6177,822.2314 1663.8519,797.60511 C 1689.2624,772.97937 1722.1726,760.66618 1762.5825,760.6659 M 1767.8764,760.6659 L 1767.8764,760.6659 M 2110.3895,761.39994 C 2140.2117,761.40009 2164.5633,768.65753 2183.4449,783.17187 C 2202.5027,797.52379 2212.0316,821.41603 2212.0318,854.8486 L 2212.0318,1034.4072 L 2134.7415,1034.4072 L 2134.7415,872.21731 C 2134.7412,858.19205 2132.7118,847.4284 2128.6535,839.92619 C 2121.2418,826.22713 2107.1248,819.37742 2086.3025,819.37716 C 2060.7154,819.37742 2043.1572,829.40724 2033.6287,849.46673 C 2028.6874,860.06759 2026.2171,873.60374 2026.2171,890.07542 L 2026.2171,1034.4072 L 1951.0443,1034.4072 L 1951.0443,768.24944 L 2023.835,768.24944 L 2023.835,807.14578 C 2033.5402,793.44673 2042.7163,783.57995 2051.3631,777.54548 C 2066.8915,766.78197 2086.567,761.40009 2110.3895,761.39994 M 2082.5968,760.6659 L 2082.5968,760.6659 M 2659.0989,788.55383 C 2659.0986,769.79906 2653.7164,756.42595 2642.9527,748.43452 C 2632.3646,740.44359 2617.4537,736.44785 2598.2194,736.44757 L 2522.2524,736.44757 L 2522.2524,842.61702 L 2598.2194,842.61702 C 2617.4537,842.6173 2632.3646,838.29554 2642.9527,829.65174 C 2653.7164,821.00827 2659.0986,807.3091 2659.0989,788.55383 M 2739.8304,788.06456 C 2739.8302,830.63042 2728.1835,860.71991 2704.8909,878.3331 C 2681.5976,895.94652 2648.3346,904.75323 2605.1015,904.75323 L 2522.2524,904.75323 L 2522.2524,1034.4072 L 2441.2562,1034.4072 L 2441.2562,673.82231 L 2611.1895,673.82231 C 2650.3639,673.82266 2681.5976,683.11864 2704.8909,701.71017 C 2728.1835,720.30224 2739.8302,749.08704 2739.8304,788.06456 M 2952.1144,761.39994 C 2953.526,761.40009 2954.6732,761.48168 2955.5557,761.64458 C 2956.6142,761.64485 2958.8199,761.72631 2962.173,761.88922 L 2962.173,833.32112 C 2957.4082,832.83199 2953.173,832.50597 2949.4676,832.34265 C 2945.7616,832.17975 2942.7617,832.09815 2940.468,832.098 C 2910.1165,832.09815 2889.7351,841.23101 2879.3238,859.49666 C 2873.5005,869.77117 2870.5889,885.59056 2870.5889,906.95486 L 2870.5889,1034.4072 L 2794.622,1034.4072 L 2794.622,767.76016 L 2866.6186,767.76016 L 2866.6186,814.24004 C 2878.2651,796.46379 2888.4114,784.31387 2897.0585,777.79011 C 2911.1752,766.86356 2929.5273,761.40009 2952.1144,761.39994 M 3135.547,985.23651 C 3157.6046,985.23661 3174.545,977.97911 3186.3682,963.46431 C 3198.191,948.94971 3204.1024,928.31932 3204.1027,901.57298 C 3204.1024,874.82685 3198.191,854.27789 3186.3682,839.92619 C 3174.545,825.41165 3157.6046,818.15433 3135.547,818.15405 C 3113.489,818.15433 3096.4606,825.41165 3084.4611,839.92619 C 3072.6382,854.27789 3066.7268,874.82685 3066.7268,901.57298 C 3066.7268,928.31932 3072.6382,948.94971 3084.4611,963.46431 C 3096.4606,977.97911 3113.489,985.23661 3135.547,985.23651 M 3283.246,901.57298 C 3283.2457,940.71388 3271.0698,974.22821 3246.7182,1002.1159 C 3222.3662,1029.8407 3185.3975,1043.703 3135.8118,1043.703 C 3086.2257,1043.703 3049.257,1029.8407 3024.9052,1002.1159 C 3000.5533,974.22821 2988.3776,940.71388 2988.3776,901.57298 C 2988.3776,863.08474 3000.5533,829.73347 3024.9052,801.51925 C 3049.257,773.30545 3086.2257,759.19844 3135.8118,759.19817 C 3185.3975,759.19844 3222.3662,773.30545 3246.7182,801.51925 C 3271.0698,829.73347 3283.2457,863.08474 3283.246,901.57298 M 3135.8118,760.6659 L 3135.8118,760.6659 M 3443.9146,761.39994 C 3461.3842,761.40009 3476.9132,764.98801 3490.5008,772.16359 C 3504.0883,779.17654 3515.1171,788.96172 3523.5874,801.51925 L 3523.5874,674.31151 L 3600.0837,674.31151 L 3600.0837,1034.4072 L 3526.7637,1034.4072 L 3526.7637,997.46791 C 3515.9993,1013.2874 3503.7353,1024.7851 3489.9715,1031.9607 C 3476.2072,1039.1367 3459.0904,1042.7246 3438.6209,1042.7246 C 3404.9165,1042.7246 3376.5061,1030.1669 3353.3896,1005.0515 C 3330.4496,979.77311 3318.9795,947.40051 3318.9795,907.93334 C 3318.9795,862.43228 3330.273,826.63481 3352.8603,800.54071 C 3375.6238,774.44709 3405.9753,761.40009 3443.9146,761.39994 M 3460.3257,984.01331 C 3481.6776,984.01331 3497.9121,976.67451 3509.0293,961.99661 C 3520.1463,947.31891 3525.7048,928.31932 3525.705,904.99786 C 3525.7048,872.38063 3516.7935,849.05918 3498.971,835.03349 C 3488.0302,826.55322 3475.3249,822.31297 3460.8551,822.31285 C 3438.7973,822.31297 3422.5627,830.05956 3412.1514,845.5527 C 3401.9167,860.88295 3396.7993,879.96417 3396.7994,902.79608 C 3396.7993,927.42238 3402.005,947.15571 3412.4161,961.99661 C 3423.004,976.67451 3438.9737,984.01331 3460.3257,984.01331 M 3744.0771,767.76016 L 3744.0771,928.48229 C 3744.0769,943.64941 3746.018,955.06551 3749.9004,962.73051 C 3756.7823,976.26681 3770.2815,983.03481 3790.3985,983.03481 C 3816.1617,983.03481 3833.8079,973.41271 3843.337,954.16841 C 3848.2778,943.73101 3850.7484,929.95024 3850.7486,912.82603 L 3850.7486,767.76016 L 3927.2448,767.76016 L 3927.2448,1034.4072 L 3853.9247,1034.4072 L 3853.9247,996.73411 C 3853.2186,997.54951 3851.4542,999.99591 3848.6309,1004.0731 C 3845.8074,1008.1502 3842.4545,1011.7382 3838.5725,1014.8366 C 3826.7493,1024.622 3815.2793,1031.3085 3804.1624,1034.8964 C 3793.2216,1038.4844 3780.3398,1040.2782 3765.5173,1040.2783 C 3722.8132,1040.2782 3694.0499,1026.0897 3679.2271,997.71261 C 3670.9333,982.05631 3666.7866,958.97971 3666.7866,928.48229 L 3666.7866,767.76016 L 3744.0771,767.76016 M 3797.0157,760.6659 L 3797.0157,760.6659 M 4172.6155,863.41062 C 4171.2036,853.46261 4167.5861,844.49271 4161.7631,836.50128 C 4153.2928,825.73787 4140.1463,820.35597 4122.3239,820.35569 C 4096.913,820.35597 4079.5316,832.0167 4070.1793,855.33789 C 4065.2382,867.73257 4062.7677,884.20441 4062.7678,904.75323 C 4062.7677,924.32371 4065.2382,940.06157 4070.1793,951.96681 C 4079.1788,974.14671 4096.1191,985.23661 4121.0005,985.23651 C 4138.6464,985.23661 4151.1751,980.83321 4158.5868,972.02641 C 4165.9979,963.21981 4170.498,951.80371 4172.0861,937.77826 L 4249.112,937.77826 C 4247.347,958.97971 4239.0534,979.03921 4224.2308,997.95731 C 4200.5845,1028.4545 4165.557,1043.703 4119.1476,1043.703 C 4072.738,1043.703 4038.5925,1030.9823 4016.7113,1005.5408 C 3994.8299,980.09931 3983.8893,947.07431 3983.8893,906.4656 C 3983.8893,860.63831 3995.9769,825.00389 4020.1521,799.56225 C 4044.3275,774.12087 4077.6787,761.40009 4120.2063,761.39994 C 4156.3808,761.40009 4185.9384,768.90217 4208.8786,783.90591 C 4231.9948,798.91008 4245.6705,825.41165 4249.906,863.41062 L 4172.6155,863.41062 M 4121.5298,760.6659 L 4121.5298,760.6659 M 4415.869,818.15405 C 4398.3991,818.15433 4384.8115,823.20999 4375.1062,833.32112 C 4365.577,843.43266 4359.5773,857.13198 4357.1069,874.4191 L 4474.3663,874.4191 C 4473.1309,855.9904 4467.0428,842.04651 4456.1024,832.58728 C 4445.3379,822.96543 4431.9268,818.15433 4415.869,818.15405 M 4415.869,760.6659 C 4439.8676,760.66618 4461.4842,764.82497 4480.7189,773.14213 C 4499.9529,781.45978 4515.8346,794.58823 4528.3636,812.52753 C 4539.657,828.34719 4546.9802,846.6945 4550.3333,867.56939 C 4552.2741,879.80097 4553.0681,897.41446 4552.7155,920.40956 L 4355.2543,920.40956 C 4356.3129,947.15571 4365.4005,965.91071 4382.5175,976.67441 C 4392.9286,983.36101 4405.4575,986.70431 4420.1041,986.70421 C 4435.6326,986.70431 4448.2497,982.62711 4457.9551,974.47271 C 4463.249,970.06951 4467.9252,963.95371 4471.984,956.12541 L 4549.0097,956.12541 C 4547.0685,971.94491 4538.157,988.00901 4522.2756,1004.3177 C 4497.5708,1030.2483 4462.9842,1043.2138 4418.516,1043.2138 C 4381.8117,1043.2138 4349.4309,1032.287 4321.3735,1010.4335 C 4293.3158,988.57971 4279.2871,953.02691 4279.2871,903.77455 C 4279.2871,857.62119 4291.9041,822.2314 4317.1384,797.60511 C 4342.5488,772.97937 4375.4588,760.66618 4415.869,760.6659 M 4421.1628,760.6659 L 4421.1628,760.6659" id="flowRoot8218"/>
    <rect style="fill: rgb(230, 172, 0); fill-opacity: 1; stroke: none; stroke-width: 1.5; stroke-linecap: round; stroke-linejoin: round; stroke-miterlimit: 4; stroke-dasharray: none; stroke-opacity: 1;" id="rect2259" width="180" height="180" x="-720" y="540"/>
    <rect style="fill: rgb(230, 94, 0); fill-opacity: 1; stroke: none; stroke-width: 1.5; stroke-linecap: round; stroke-linejoin: round; stroke-miterlimit: 4; stroke-dasharray: none; stroke-opacity: 1;" id="rect2261" width="180" height="180" x="-720" y="720"/>
    <rect style="fill: rgb(230, 191, 0); fill-opacity: 1; stroke: none; stroke-width: 1.5; stroke-linecap: round; stroke-linejoin: round; stroke-miterlimit: 4; stroke-dasharray: none; stroke-opacity: 1;" id="rect2263" width="180" height="180" x="-720" y="360"/>
    <rect style="fill: rgb(51, 102, 0); fill-opacity: 1; stroke: none; stroke-width: 1.5; stroke-linecap: round; stroke-linejoin: round; stroke-miterlimit: 4; stroke-dasharray: none; stroke-opacity: 1;" id="rect2265" width="180" height="180" x="-720" y="900"/>
    <rect style="fill: rgb(172, 230, 0); fill-opacity: 1; stroke: none; stroke-width: 1.5; stroke-linecap: round; stroke-linejoin: round; stroke-miterlimit: 4; stroke-dasharray: none; stroke-opacity: 1;" id="rect2267" width="180" height="180" x="-720" y="1080"/>
    <rect style="fill: rgb(167, 199, 0); fill-opacity: 1; stroke: none; stroke-width: 1.5; stroke-linecap: round; stroke-linejoin: round; stroke-miterlimit: 4; stroke-dasharray: none; stroke-opacity: 1;" id="rect2271" width="180" height="180" x="-540" y="540"/>
    <rect style="fill: rgb(167, 185, 0); fill-opacity: 1; stroke: none; stroke-width: 1.5; stroke-linecap: round; stroke-linejoin: round; stroke-miterlimit: 4; stroke-dasharray: none; stroke-opacity: 1;" id="rect2273" width="180" height="180" x="-540" y="720"/>
    <rect style="fill: rgb(136, 187, 0); fill-opacity: 1; stroke: none; stroke-width: 1.5; stroke-linecap: round; stroke-linejoin: round; stroke-miterlimit: 4; stroke-dasharray: none; stroke-opacity: 1;" id="rect2277" width="180" height="180" x="-540" y="900"/>
    <rect style="fill: rgb(157, 209, 0); fill-opacity: 1; stroke: none; stroke-width: 1.5; stroke-linecap: round; stroke-linejoin: round; stroke-miterlimit: 4; stroke-dasharray: none; stroke-opacity: 1;" id="rect2279" width="180" height="180" x="-540" y="1080"/>
    <rect style="fill: rgb(153, 51, 51); fill-opacity: 1; stroke: none; stroke-width: 1.5; stroke-linecap: round; stroke-linejoin: round; stroke-miterlimit: 4; stroke-dasharray: none; stroke-opacity: 1;" id="rect2281" width="180" height="180" x="-720" y="1440"/>
    <rect style="fill: rgb(222, 135, 135); fill-opacity: 1; stroke: none; stroke-width: 1.5; stroke-linecap: round; stroke-linejoin: round; stroke-miterlimit: 4; stroke-dasharray: none; stroke-opacity: 1;" id="rect2283" width="180" height="180" x="-540" y="1440"/>
    <rect style="fill: rgb(230, 57, 0); fill-opacity: 1; stroke: none; stroke-width: 1.5; stroke-linecap: round; stroke-linejoin: round; stroke-miterlimit: 4; stroke-dasharray: none; stroke-opacity: 1;" id="rect2285" width="180" height="180" x="-720" y="1620"/>
    <rect style="fill: rgb(230, 0, 57); fill-opacity: 1; stroke: none; stroke-width: 1.5; stroke-linecap: round; stroke-linejoin: round; stroke-miterlimit: 4; stroke-dasharray: none; stroke-opacity: 1;" id="rect2287" width="180" height="180" x="-540" y="1620" inkscape:transform-center-y="42.6565" inkscape:transform-center-x="-23.534621"/>
  </g>
</svg>